<svg width="137" height="126" viewBox="0 0 137 126" fill="none" xmlns="http://www.w3.org/2000/svg">
<path d="M135.344 86.7228C134.745 85.6816 133.947 84.7687 132.995 84.0362C132.043 83.3038 130.956 82.7661 129.796 82.4539C128.636 82.1417 127.426 82.0612 126.235 82.2169C125.044 82.3726 123.895 82.7615 122.855 83.3614L100.542 96.2418C99.3268 94.4149 97.4903 93.0906 95.3731 92.5143L61.2328 83.3614C58.6049 82.6567 55.8408 82.6331 53.2012 83.2927L41.188 86.3086V82.3751C41.188 81.7683 40.9469 81.1862 40.5178 80.7571C40.0887 80.328 39.5067 80.0869 38.8998 80.0869H20.594C19.9871 80.0869 19.4051 80.328 18.976 80.7571C18.5469 81.1862 18.3058 81.7683 18.3058 82.3751V84.6634H2.28822C1.68135 84.6634 1.09933 84.9044 0.670205 85.3336C0.24108 85.7627 0 86.3447 0 86.9516V118.987C0 119.594 0.24108 120.176 0.670205 120.605C1.09933 121.034 1.68135 121.275 2.28822 121.275H18.3058V123.563C18.3058 124.17 18.5469 124.752 18.976 125.181C19.4051 125.61 19.9871 125.851 20.594 125.851H38.8998C39.5067 125.851 40.0887 125.61 40.5178 125.181C40.9469 124.752 41.188 124.17 41.188 123.563V120.401L44.1307 121.872C46.3552 122.982 48.8068 123.561 51.2928 123.563H85.5635C88.3751 123.562 91.1369 122.822 93.5723 121.417L132.014 99.221C134.107 97.9991 135.631 95.9994 136.255 93.658C136.878 91.3166 136.551 88.8236 135.344 86.7228ZM4.57645 116.698V89.2398H18.3058V116.698H4.57645ZM36.6116 121.275H22.8822V84.6634H36.6116V121.275ZM129.719 95.267L91.2772 117.463C89.538 118.467 87.565 118.996 85.5567 118.996H51.2928C49.5177 118.993 47.7673 118.58 46.1786 117.788L41.188 115.284V91.0292L54.3087 87.7479C56.195 87.2786 58.1694 87.2951 60.0476 87.7959L94.1878 96.9488C94.7785 97.0949 95.3341 97.3572 95.8222 97.7206C96.3102 98.0839 96.7209 98.5409 97.0302 99.0649C97.3396 99.5888 97.5413 100.169 97.6237 100.772C97.706 101.375 97.6673 101.988 97.5099 102.576C97.3524 103.164 97.0793 103.714 96.7066 104.195C96.3339 104.676 95.869 105.078 95.3391 105.377C94.8093 105.676 94.2251 105.866 93.6208 105.937C93.0164 106.008 92.4041 105.957 91.8195 105.788L64.5279 98.4705C63.9427 98.3168 63.3205 98.4012 62.7973 98.7051C62.2742 99.009 61.8926 99.5077 61.7362 100.092C61.5798 100.677 61.6613 101.299 61.9627 101.824C62.2642 102.348 62.7612 102.732 63.3449 102.891L90.6319 110.214C91.4096 110.422 92.2111 110.528 93.0163 110.529C94.28 110.539 95.5317 110.284 96.6906 109.78C97.8495 109.276 98.89 108.534 99.7449 107.604C100.6 106.673 101.25 105.573 101.654 104.376C102.058 103.178 102.206 101.91 102.089 100.651L125.136 87.3452C126.191 86.7636 127.429 86.6131 128.592 86.9255C129.756 87.2378 130.752 87.9885 131.374 89.0201C131.976 90.0695 132.14 91.314 131.83 92.4835C131.521 93.6531 130.762 94.6533 129.719 95.267Z" fill="black"/>
<path d="M61.7804 54.9167H70.3681C70.4985 55.2462 70.629 55.5642 70.7663 55.8731L64.6933 61.9484C64.2643 62.3775 64.0234 62.9594 64.0234 63.5661C64.0234 64.1729 64.2643 64.7548 64.6933 65.1839L74.3954 74.886C74.8245 75.315 75.4064 75.556 76.0132 75.556C76.6199 75.556 77.2018 75.315 77.6309 74.886L83.7039 68.813C84.0151 68.9481 84.3331 69.0808 84.6626 69.2112V77.7989C84.6626 78.4058 84.9037 78.9878 85.3328 79.4169C85.762 79.846 86.344 80.0871 86.9509 80.0871H100.68C101.287 80.0871 101.869 79.846 102.298 79.4169C102.727 78.9878 102.968 78.4058 102.968 77.7989V69.2112C103.298 69.0808 103.616 68.9481 103.927 68.813L110 74.886C110.437 75.2994 111.016 75.5298 111.618 75.5298C112.22 75.5298 112.798 75.2994 113.236 74.886L122.938 65.1839C123.367 64.7548 123.608 64.1729 123.608 63.5661C123.608 62.9594 123.367 62.3775 122.938 61.9484L116.865 55.8731C117.002 55.5642 117.133 55.2462 117.263 54.9167H125.851C126.458 54.9167 127.04 54.6756 127.469 54.2465C127.898 53.8173 128.139 53.2353 128.139 52.6284V38.8991C128.139 38.2922 127.898 37.7102 127.469 37.2811C127.04 36.852 126.458 36.6109 125.851 36.6109H117.263C117.133 36.2814 117.002 35.9633 116.865 35.6521L122.938 29.5792C123.367 29.1501 123.608 28.5682 123.608 27.9614C123.608 27.3546 123.367 26.7727 122.938 26.3436L113.236 16.6416C112.807 16.2126 112.225 15.9716 111.618 15.9716C111.011 15.9716 110.429 16.2126 110 16.6416L103.927 22.7145C103.616 22.5795 103.298 22.4468 102.968 22.3164V13.7287C102.968 13.1218 102.727 12.5398 102.298 12.1106C101.869 11.6815 101.287 11.4404 100.68 11.4404H86.9509C86.344 11.4404 85.762 11.6815 85.3328 12.1106C84.9037 12.5398 84.6626 13.1218 84.6626 13.7287V22.3164C84.3331 22.4468 84.0151 22.5795 83.7039 22.7145L77.6309 16.6416C77.1937 16.2281 76.6149 15.9978 76.0132 15.9978C75.4115 15.9978 74.8326 16.2281 74.3954 16.6416L64.6933 26.3436C64.2643 26.7727 64.0234 27.3546 64.0234 27.9614C64.0234 28.5682 64.2643 29.1501 64.6933 29.5792L70.7663 35.6521C70.629 35.9633 70.4985 36.2814 70.3681 36.6109H61.7804C61.1735 36.6109 60.5915 36.852 60.1624 37.2811C59.7333 37.7102 59.4922 38.2922 59.4922 38.8991V52.6284C59.4922 53.2353 59.7333 53.8173 60.1624 54.2465C60.5915 54.6756 61.1735 54.9167 61.7804 54.9167ZM64.0686 41.1873H71.9859C72.4703 41.1873 72.9423 41.0335 73.3338 40.7482C73.7252 40.4628 74.016 40.0605 74.1643 39.5993C74.5193 38.4548 74.9829 37.3469 75.5486 36.2905C75.7861 35.8566 75.8765 35.3574 75.8064 34.8677C75.7363 34.378 75.5094 33.9243 75.1597 33.5744L69.5604 27.9614L76.0246 21.4949L81.6376 27.1079C81.9876 27.4581 82.4418 27.6854 82.932 27.7555C83.4221 27.8256 83.9218 27.7349 84.356 27.4969C85.4117 26.9297 86.5198 26.4661 87.6648 26.1125C88.1234 25.9619 88.5227 25.6701 88.8055 25.2788C89.0882 24.8876 89.24 24.4169 89.2391 23.9341V16.0169H98.392V23.9341C98.3918 24.4183 98.5453 24.89 98.8302 25.2815C99.1152 25.6729 99.5169 25.9639 99.9777 26.1125C101.123 26.4661 102.231 26.9297 103.286 27.4969C103.721 27.7349 104.22 27.8256 104.711 27.7555C105.201 27.6854 105.655 27.4581 106.005 27.1079L111.618 21.4949L118.082 27.9614L112.471 33.5744C112.122 33.9243 111.895 34.378 111.825 34.8677C111.755 35.3574 111.845 35.8566 112.082 36.2905C112.648 37.3469 113.112 38.4548 113.467 39.5993C113.615 40.0605 113.906 40.4628 114.297 40.7482C114.689 41.0335 115.161 41.1873 115.645 41.1873H123.562V50.3402H115.645C115.161 50.3402 114.689 50.494 114.297 50.7794C113.906 51.0648 113.615 51.467 113.467 51.9282C113.112 53.0727 112.648 54.1807 112.082 55.237C111.845 55.671 111.755 56.1702 111.825 56.6599C111.895 57.1495 112.122 57.6033 112.471 57.9531L118.082 63.5661L111.618 70.0327L106.005 64.4197C105.655 64.0694 105.201 63.8422 104.711 63.772C104.22 63.7019 103.721 63.7927 103.286 64.0307C102.231 64.5978 101.123 65.0615 99.9777 65.415C99.5169 65.5637 99.1152 65.8546 98.8302 66.2461C98.5453 66.6375 98.3918 67.1093 98.392 67.5934V75.5107H89.2391V67.5934C89.2392 67.1093 89.0858 66.6375 88.8008 66.2461C88.5159 65.8546 88.1141 65.5637 87.6533 65.415C86.5083 65.0615 85.4002 64.5978 84.3446 64.0307C83.9104 63.7927 83.4107 63.7019 82.9205 63.772C82.4304 63.8422 81.9762 64.0694 81.6262 64.4197L76.0132 70.0327L69.5604 63.5661L75.1711 57.9531C75.5208 57.6033 75.7477 57.1495 75.8179 56.6599C75.888 56.1702 75.7975 55.671 75.5601 55.237C74.9943 54.1807 74.5308 53.0727 74.1757 51.9282C74.0269 51.4652 73.7343 51.0616 73.3406 50.776C72.9468 50.4905 72.4723 50.3378 71.9859 50.3402H64.0686V41.1873Z" fill="black"/>
<path d="M93.8172 59.4938C91.1018 59.4938 88.4474 58.6886 86.1896 57.18C83.9319 55.6714 82.1721 53.5272 81.133 51.0185C80.0938 48.5098 79.822 45.7493 80.3517 43.086C80.8815 40.4228 82.189 37.9765 84.1091 36.0564C86.0292 34.1363 88.4755 32.8287 91.1388 32.299C93.802 31.7692 96.5625 32.0411 99.0712 33.0802C101.58 34.1194 103.724 35.8791 105.233 38.1369C106.741 40.3947 107.547 43.0491 107.547 45.7645C107.543 49.4046 106.095 52.8946 103.521 55.4686C100.947 58.0426 97.4574 59.4902 93.8172 59.4938ZM93.8172 36.6116C92.007 36.6116 90.2373 37.1484 88.7322 38.1542C87.227 39.1599 86.0538 40.5894 85.3611 42.2618C84.6683 43.9343 84.487 45.7747 84.8402 47.5501C85.1934 49.3256 86.0651 50.9565 87.3452 52.2366C88.6252 53.5166 90.2561 54.3884 92.0316 54.7415C93.8071 55.0947 95.6474 54.9134 97.3199 54.2207C98.9924 53.5279 100.422 52.3548 101.428 50.8496C102.433 49.3444 102.97 47.5748 102.97 45.7645C102.97 43.337 102.006 41.0089 100.289 39.2924C98.5728 37.5759 96.2447 36.6116 93.8172 36.6116Z" fill="black"/>
<path d="M36.611 45.7645H27.4581C26.8513 45.7645 26.2692 45.5234 25.8401 45.0943C25.411 44.6651 25.1699 44.0831 25.1699 43.4762V39.4581L22.3256 42.3024C21.8965 42.7313 21.3146 42.9723 20.7079 42.9723C20.1011 42.9723 19.5192 42.7313 19.0901 42.3024L12.6144 35.8267C12.1854 35.3976 11.9445 34.8157 11.9445 34.2089C11.9445 33.6022 12.1854 33.0203 12.6144 32.5912L15.4587 29.7469H11.4406C10.8337 29.7469 10.2517 29.5058 9.82255 29.0767C9.39342 28.6476 9.15234 28.0655 9.15234 27.4587V18.3058C9.15234 17.6989 9.39342 17.1169 9.82255 16.6878C10.2517 16.2586 10.8337 16.0176 11.4406 16.0176H15.4587L12.6144 13.1733C12.1854 12.7442 11.9445 12.1623 11.9445 11.5555C11.9445 10.9488 12.1854 10.3669 12.6144 9.93775L19.0901 3.46208C19.5192 3.0331 20.1011 2.79212 20.7079 2.79212C21.3146 2.79212 21.8965 3.0331 22.3256 3.46208L25.1699 6.30634V2.28822C25.1699 1.68135 25.411 1.09933 25.8401 0.670205C26.2692 0.24108 26.8513 0 27.4581 0H36.611C37.2179 0 37.7999 0.24108 38.229 0.670205C38.6582 1.09933 38.8992 1.68135 38.8992 2.28822V6.30634L41.7435 3.46208C42.1726 3.0331 42.7545 2.79212 43.3613 2.79212C43.968 2.79212 44.5499 3.0331 44.979 3.46208L51.4547 9.93775C51.8837 10.3669 52.1247 10.9488 52.1247 11.5555C52.1247 12.1623 51.8837 12.7442 51.4547 13.1733L48.6105 16.0176H52.6286C53.2355 16.0176 53.8175 16.2586 54.2466 16.6878C54.6757 17.1169 54.9168 17.6989 54.9168 18.3058V27.4587C54.9168 28.0655 54.6757 28.6476 54.2466 29.0767C53.8175 29.5058 53.2355 29.7469 52.6286 29.7469H48.6105L51.4547 32.5912C51.8837 33.0203 52.1247 33.6022 52.1247 34.2089C52.1247 34.8157 51.8837 35.3976 51.4547 35.8267L44.979 42.3024C44.5499 42.7313 43.968 42.9723 43.3613 42.9723C42.7545 42.9723 42.1726 42.7313 41.7435 42.3024L38.8992 39.4581V43.4762C38.8992 44.0831 38.6582 44.6651 38.229 45.0943C37.7999 45.5234 37.2179 45.7645 36.611 45.7645ZM29.7463 41.188H34.3228V35.8107C34.3228 35.3184 34.4815 34.8393 34.7754 34.4444C35.0693 34.0494 35.4827 33.7598 35.9543 33.6186C36.2708 33.5195 36.5773 33.3908 36.8696 33.2341C37.3016 33.008 37.7945 32.9258 38.2765 32.9995C38.7585 33.0732 39.2044 33.2989 39.5491 33.6437L43.3544 37.4491L46.5945 34.2089L42.7892 30.4036C42.4444 30.0589 42.2186 29.613 42.145 29.131C42.0713 28.649 42.1535 28.1561 42.3796 27.7241C42.5388 27.4279 42.6683 27.1167 42.7663 26.7951C42.9091 26.3241 43.1999 25.9116 43.5956 25.6189C43.9913 25.3263 44.4708 25.169 44.963 25.1705H50.3404V20.594H44.963C44.472 20.594 43.994 20.436 43.5997 20.1435C43.2054 19.8509 42.9156 19.4393 42.7732 18.9694C42.6752 18.6477 42.5456 18.3365 42.3865 18.0403C42.1604 17.6084 42.0782 17.1154 42.1518 16.6334C42.2255 16.1514 42.4512 15.7056 42.7961 15.3608L46.6014 11.5555L43.3613 8.3154L39.556 12.1276C39.2112 12.4724 38.7654 12.6982 38.2834 12.7718C37.8014 12.8455 37.3084 12.7633 36.8764 12.5372C36.5841 12.3806 36.2777 12.2518 35.9612 12.1528C35.4872 12.0124 35.0714 11.7223 34.7761 11.3259C34.4808 10.9295 34.3217 10.4481 34.3228 9.95377V4.57645H29.7463V9.95377C29.7464 10.446 29.5877 10.9252 29.2938 11.3201C28.9998 11.715 28.5864 12.0046 28.1148 12.1459C27.7983 12.245 27.4919 12.3737 27.1996 12.5303C26.7676 12.7564 26.2746 12.8386 25.7926 12.765C25.3106 12.6913 24.8648 12.4656 24.52 12.1207L20.7079 8.3154L17.4677 11.5555L21.2799 15.3608C21.6248 15.7056 21.8505 16.1514 21.9242 16.6334C21.9979 17.1154 21.9156 17.6084 21.6895 18.0403C21.5304 18.3365 21.4008 18.6477 21.3028 18.9694C21.1604 19.4393 20.8706 19.8509 20.4763 20.1435C20.082 20.436 19.604 20.594 19.113 20.594H13.7288V25.1705H19.1061C19.5971 25.1705 20.0751 25.3284 20.4694 25.621C20.8638 25.9135 21.1535 26.3252 21.2959 26.7951C21.394 27.1167 21.5235 27.4279 21.6827 27.7241C21.9088 28.1561 21.991 28.649 21.9173 29.131C21.8436 29.613 21.6179 30.0589 21.2731 30.4036L17.4677 34.2089L20.7079 37.4491L24.5132 33.6369C24.8579 33.292 25.3038 33.0663 25.7858 32.9926C26.2678 32.9189 26.7607 33.0012 27.1927 33.2273C27.485 33.3839 27.7915 33.5126 28.108 33.6117C28.582 33.7521 28.9977 34.0422 29.2931 34.4386C29.5884 34.835 29.7474 35.3164 29.7463 35.8107V41.188Z" fill="black"/>
<path d="M32.0338 32.0343C30.2235 32.0343 28.4539 31.4975 26.9487 30.4918C25.4435 29.486 24.2703 28.0565 23.5776 26.3841C22.8848 24.7116 22.7036 22.8713 23.0567 21.0958C23.4099 19.3203 24.2816 17.6894 25.5617 16.4093C26.8417 15.1293 28.4726 14.2576 30.2481 13.9044C32.0236 13.5512 33.8639 13.7325 35.5364 14.4252C37.2089 15.118 38.6384 16.2912 39.6441 17.7963C40.6498 19.3015 41.1866 21.0711 41.1866 22.8814C41.1866 25.3089 40.2223 27.637 38.5058 29.3535C36.7893 31.07 34.4613 32.0343 32.0338 32.0343ZM32.0338 18.305C31.1286 18.305 30.2438 18.5734 29.4912 19.0762C28.7386 19.5791 28.1521 20.2938 27.8057 21.1301C27.4593 21.9663 27.3687 22.8865 27.5452 23.7742C27.7218 24.662 28.1577 25.4774 28.7977 26.1174C29.4377 26.7575 30.2532 27.1933 31.1409 27.3699C32.0287 27.5465 32.9489 27.4559 33.7851 27.1095C34.6213 26.7631 35.3361 26.1765 35.8389 25.424C36.3418 24.6714 36.6102 23.7865 36.6102 22.8814C36.6102 21.6677 36.128 20.5036 35.2698 19.6454C34.4115 18.7871 33.2475 18.305 32.0338 18.305Z" fill="black"/>
</svg>
