<svg width="25" height="20" viewBox="0 0 25 27" fill="none" xmlns="http://www.w3.org/2000/svg">
<path fill-rule="evenodd" clip-rule="evenodd" d="M5.62964 26.0141H22.2448C22.9344 26.0134 23.5956 25.7391 24.0833 25.2515C24.5711 24.7639 24.8455 24.1028 24.8464 23.4131V6.71313L18.1333 0H5.62964C4.93996 0.000751698 4.27874 0.27506 3.79106 0.762739C3.30338 1.25042 3.02907 1.91164 3.02832 2.60132V10.2958H16.8941C17.3124 10.2963 17.7134 10.4627 18.0092 10.7584C18.305 11.0542 18.4713 11.4552 18.4718 11.8735V20.6408C18.4713 21.0591 18.305 21.4601 18.0092 21.7558C17.7134 22.0516 17.3124 22.218 16.8941 22.2185H3.02832V23.4131C3.02924 24.1027 3.30361 24.7638 3.79126 25.2514C4.27891 25.739 4.94004 26.0133 5.62964 26.0141ZM12.2395 5.35242C12.4401 5.21857 12.6759 5.14723 12.9171 5.14742C13.2402 5.14809 13.5499 5.27683 13.7782 5.50544C14.0066 5.73404 14.135 6.04386 14.1354 6.36699C14.1353 6.60816 14.0637 6.84389 13.9297 7.04438C13.7956 7.24486 13.6051 7.40109 13.3823 7.49329C13.1594 7.5855 12.9142 7.60954 12.6777 7.56239C12.4412 7.51523 12.224 7.39899 12.0535 7.22836C11.8831 7.05774 11.7671 6.8404 11.7202 6.60384C11.6732 6.36727 11.6975 6.12211 11.79 5.89935C11.8824 5.6766 12.0388 5.48626 12.2395 5.35242ZM9.25911 5.35288C9.45961 5.21892 9.69533 5.14742 9.93646 5.14742C10.2598 5.14784 10.5697 5.27647 10.7982 5.5051C11.0268 5.73373 11.1554 6.04369 11.1557 6.36699C11.1556 6.60812 11.0841 6.84382 10.9501 7.04428C10.8161 7.24474 10.6256 7.40097 10.4028 7.4932C10.18 7.58544 9.93489 7.60954 9.6984 7.56246C9.46191 7.51537 9.24469 7.39923 9.07421 7.2287C8.90372 7.05817 8.78763 6.84092 8.74061 6.60442C8.69359 6.36792 8.71776 6.12278 8.81005 5.90001C8.90234 5.67724 9.05861 5.48684 9.25911 5.35288ZM6.2786 5.35303C6.47905 5.21904 6.71474 5.14748 6.95586 5.14742C7.27921 5.14775 7.58921 5.27635 7.81785 5.50499C8.04649 5.73363 8.17509 6.04364 8.17543 6.36699C8.17536 6.6081 8.10381 6.84379 7.96981 7.04425C7.83582 7.2447 7.64539 7.40093 7.42262 7.49317C7.19984 7.58541 6.95472 7.60953 6.71823 7.56248C6.48175 7.51542 6.26453 7.39931 6.09403 7.22881C5.92354 7.05831 5.80742 6.84109 5.76037 6.60461C5.71331 6.36813 5.73743 6.12301 5.82967 5.90023C5.92192 5.67745 6.07814 5.48703 6.2786 5.35303ZM17.2987 7.5692V1.68846L23.1677 7.5692H17.2987ZM1.57771 20.7939H15.0065C15.4248 20.7935 15.8259 20.6272 16.1216 20.3314C16.4174 20.0356 16.5838 19.6345 16.5842 19.2162V13.4273C16.5838 13.009 16.4174 12.608 16.1216 12.3122C15.8259 12.0164 15.4248 11.85 15.0065 11.8496H1.57771C1.15943 11.8501 0.758421 12.0165 0.462653 12.3123C0.166884 12.608 0.000501034 13.009 0 13.4273V19.2162C0.000501034 19.6345 0.166884 20.0355 0.462653 20.3313C0.758421 20.6271 1.15943 20.7934 1.57771 20.7939ZM11.3863 19.0966V13.7163H14.9674V14.7176H12.6769V15.9554H14.7594V16.9535H12.6769V19.0966H11.3863ZM6.51876 19.0966V13.7163L8.24225 13.7148C8.68863 13.7085 9.12877 13.8201 9.51829 14.0382C9.89348 14.2524 10.1999 14.5691 10.4018 14.9511C10.6169 15.3579 10.7275 15.8118 10.7237 16.2719V16.5196C10.7308 16.9802 10.624 17.4355 10.4129 17.8449C10.2138 18.2269 9.91097 18.5448 9.53912 18.7622C9.15663 18.9838 8.72187 19.0993 8.2798 19.0966H6.51876ZM1.61809 19.0966V13.7163H3.75399C4.12861 13.7094 4.49996 13.7871 4.8404 13.9435C5.14176 14.0835 5.39597 14.308 5.57214 14.5898C5.74638 14.8763 5.83628 15.2061 5.83151 15.5414C5.84004 15.7802 5.79383 16.0178 5.69643 16.2359C5.59902 16.4541 5.453 16.6471 5.26954 16.8001C4.82931 17.1348 4.28434 17.3018 3.73222 17.2712H2.90866V19.0966H1.61809ZM7.80932 18.0989H8.25771C8.42158 18.107 8.58494 18.0749 8.73359 18.0054C8.88223 17.936 9.01166 17.8312 9.11061 17.7004C9.33235 17.3482 9.43654 16.9348 9.40817 16.5196V16.2883C9.43653 15.875 9.3323 15.4633 9.11061 15.1132C9.00894 14.9818 8.87681 14.8771 8.72563 14.8082C8.57445 14.7393 8.40876 14.7082 8.24288 14.7176H7.80932V18.0989ZM2.90866 16.2697H3.75494C3.96249 16.2837 4.16729 16.2161 4.32575 16.0813C4.39364 16.0111 4.44619 15.9275 4.48009 15.8358C4.51398 15.7442 4.52847 15.6465 4.52265 15.549C4.53344 15.3299 4.46121 15.1148 4.32039 14.9466C4.25027 14.8711 4.16472 14.8116 4.06955 14.772C3.97438 14.7325 3.87181 14.7139 3.76882 14.7176H2.90866V16.2697Z" fill="#2D2D2D"/>
</svg>
