<svg width="114" height="134" viewBox="0 0 114 134" fill="none" xmlns="http://www.w3.org/2000/svg">
<path d="M112.965 116.958L92.5203 81.5509C100.516 72.8704 105.313 61.3345 105.313 48.6564C105.313 35.1788 99.8302 23.0718 91.0355 14.2771C82.2408 5.48241 70.1338 0 56.6562 0C43.1786 0 31.0716 5.48241 22.2769 14.2771C13.4822 23.0718 7.99981 35.1788 7.99981 48.6564C7.99981 61.3345 12.7969 72.8704 20.7921 81.5509L0.347279 116.958C0.00462771 117.529 -0.109589 118.329 0.118845 119.128C0.575713 120.385 1.94632 120.956 3.2027 120.499L19.5357 113.988L22.0485 131.464C22.1627 132.149 22.5054 132.834 23.1907 133.177C24.3328 133.862 25.8177 133.405 26.503 132.263L47.1762 96.5133C50.1459 97.0844 53.3439 97.427 56.4278 97.427C59.6259 97.427 62.7097 97.0844 65.6794 96.5133L86.3526 132.263C87.0379 133.405 88.5227 133.748 89.6649 133.177C90.3502 132.834 90.6929 132.149 90.8071 131.464L93.3199 113.988L109.653 120.499C110.909 120.956 112.28 120.385 112.737 119.128C113.422 118.329 113.308 117.529 112.965 116.958ZM26.0461 123.811L23.9902 110.219C23.7617 108.963 22.6196 108.049 21.249 108.163C21.0205 108.163 20.7921 108.278 20.5637 108.392L7.8856 113.417L24.3328 84.9774C29.4726 89.5461 35.6403 93.0868 42.4933 95.1427L26.0461 123.811ZM56.6562 92.5157C44.5492 92.5157 33.5844 87.6044 25.7034 79.7234C17.8225 71.8424 12.9111 60.8776 12.9111 48.7706C12.9111 36.6636 17.8225 25.6988 25.7034 17.8178C33.5844 9.70844 44.5492 4.79711 56.6562 4.79711C68.7632 4.79711 79.728 9.70844 87.609 17.5894C95.49 25.4704 100.401 36.4352 100.401 48.5422C100.401 60.6492 95.49 71.614 87.609 79.495C79.728 87.6044 68.7632 92.5157 56.6562 92.5157ZM92.7488 108.392C92.5203 108.278 92.2919 108.163 92.0635 108.163C90.8071 107.935 89.5507 108.849 89.3223 110.219L87.2664 123.811L70.8191 95.1427C77.6721 93.0868 83.8399 89.5461 88.9796 84.9774L105.427 113.417L92.7488 108.392Z" fill="black"/>
<path d="M79.0368 40.2055C78.4657 39.4059 77.7804 38.8349 76.9809 38.4922C76.1814 38.1496 75.2677 37.9211 74.3539 38.0353H64.8739L61.9043 28.6695C61.4474 27.2989 60.4195 26.1568 59.2773 25.4715C58.4778 25.1288 57.6783 24.9004 56.7645 24.9004C55.8508 24.9004 55.0513 25.1288 54.2517 25.4715C52.9954 26.1568 52.0816 27.1847 51.6248 28.6695L48.6551 38.0353H39.1751C38.2614 37.9211 37.3476 38.1496 36.5481 38.4922C35.7486 38.8349 35.0633 39.4059 34.4922 40.2055C33.5785 41.4618 33.3501 42.8324 33.5785 44.2031C33.8069 45.5737 34.4922 46.83 35.7486 47.7438L43.7438 53.4546L40.6599 62.8204C40.6599 62.9346 40.6599 63.0488 40.5457 63.0488C40.3173 63.7341 40.3173 64.5337 40.4315 65.3332C40.5457 66.1327 40.8884 66.9322 41.4595 67.6175C42.3732 68.8739 43.6296 69.5592 45.0002 69.7876C46.3708 70.0161 47.8556 69.6734 48.9978 68.7597L56.993 62.9346L64.9881 68.7597C66.2445 69.6734 67.6151 69.9019 68.9857 69.7876C70.3563 69.5592 71.6127 68.8739 72.5265 67.6175C73.0975 66.9322 73.326 66.1327 73.5544 65.3332C73.6686 64.5337 73.6686 63.8484 73.4402 63.0488C73.4402 62.9346 73.4402 62.8204 73.326 62.8204L70.2421 53.4546L78.2373 47.7438C79.4937 46.83 80.179 45.5737 80.4074 44.2031C80.2932 42.9467 79.9506 41.4618 79.0368 40.2055ZM75.0392 43.8604L74.925 43.9746L65.6734 50.7134C64.8739 51.2845 64.4171 52.4267 64.7597 53.3404L68.3004 64.191V64.3052C68.3004 64.4194 68.3004 64.5337 68.3004 64.6479C68.3004 64.7621 68.3004 64.8763 68.1862 64.8763C68.072 64.9905 67.9578 65.1047 67.7293 65.1047C67.6151 65.1047 67.3867 65.1047 67.2725 64.9905L57.9067 58.1375C57.4498 57.7949 56.993 57.6806 56.4219 57.6806C55.965 57.6806 55.3939 57.7949 54.937 58.1375L45.5713 64.9905C45.457 65.1047 45.2286 65.1047 45.1144 65.1047C45.0002 65.1047 44.7717 64.9905 44.6575 64.8763C44.5433 64.7621 44.5433 64.6479 44.5433 64.6479C44.5433 64.5337 44.5433 64.4194 44.5433 64.3052V64.191L48.084 53.3404C48.4267 52.3125 48.084 51.2845 47.1703 50.7134L38.3756 43.9746L38.2614 43.8604C38.1472 43.7462 38.0329 43.632 38.0329 43.5177C38.0329 43.4035 38.0329 43.1751 38.1472 43.0609C38.1472 43.0609 38.1472 42.9467 38.2614 42.9467C38.3756 42.8324 38.3756 42.8324 38.4898 42.8324C38.604 42.8324 38.7182 42.7182 38.8325 42.7182C38.9467 42.7182 39.0609 42.7182 39.1751 42.7182H50.3684C51.3963 42.7182 52.3101 42.0329 52.6527 41.005L56.1934 30.0402C56.1934 29.9259 56.3076 29.6975 56.5361 29.6975C56.6503 29.6975 56.7645 29.5833 56.7645 29.5833C56.8787 29.5833 56.993 29.5833 56.993 29.6975C57.1072 29.8117 57.2214 29.9259 57.3356 30.0402L60.8763 41.005C61.219 41.9187 62.1327 42.7182 63.1607 42.7182H74.3539C74.4681 42.7182 74.5824 42.7182 74.6966 42.7182C74.8108 42.7182 74.925 42.7182 75.0392 42.8324C75.1534 42.8324 75.1534 42.9467 75.2677 42.9467C75.2677 42.9467 75.2677 43.0609 75.3819 43.0609C75.4961 43.1751 75.4961 43.2893 75.4961 43.5177C75.2677 43.632 75.1534 43.7462 75.0392 43.8604Z" fill="black"/>
<path d="M83.4973 21.8173C76.6443 14.9643 67.1643 10.7383 56.6563 10.7383C46.1484 10.7383 36.6684 14.9643 29.8154 21.8173C22.9624 28.6703 18.7363 38.1503 18.7363 48.6583C18.7363 59.1662 22.9624 68.6462 29.8154 75.4993C36.6684 82.3523 46.1484 86.5783 56.6563 86.5783C67.1643 86.5783 76.6443 82.3523 83.4973 75.4993C90.3503 68.6462 94.5764 59.1662 94.5764 48.6583C94.5764 38.1503 90.3503 28.6703 83.4973 21.8173ZM80.185 72.0728C74.1315 78.1263 65.7937 81.7812 56.6563 81.7812C47.519 81.7812 39.1812 78.012 33.2419 72.0728C27.1884 66.0193 23.5334 57.7956 23.5334 48.6583C23.5334 39.5209 27.3026 31.1831 33.2419 25.2438C39.1812 19.1903 47.519 15.4212 56.6563 15.4212C65.7937 15.4212 74.1315 19.1903 80.0708 25.1296C86.1243 31.1831 89.7792 39.4067 89.7792 48.5441C89.7792 57.6814 86.1243 66.1335 80.185 72.0728Z" fill="black"/>
</svg>
