<svg width="46" height="49" viewBox="0 0 46 49" fill="none" xmlns="http://www.w3.org/2000/svg">
<path d="M44.4399 9.39536L25.3756 0.605771C24.647 0.208285 23.8303 0 23.0004 0C22.1704 0 21.3537 0.208285 20.6252 0.605771L1.56088 9.39536C1.23304 9.54648 0.978656 9.82163 0.85369 10.1603C0.728724 10.499 0.743412 10.8734 0.894525 11.2013C1.04564 11.5291 1.3208 11.7835 1.65947 11.9085C1.99814 12.0334 2.37258 12.0187 2.70042 11.8676L21.8077 3.05811C21.8387 3.04371 21.8693 3.0282 21.8989 3.01183C22.2355 2.82336 22.6147 2.7244 23.0004 2.7244C23.3861 2.7244 23.7653 2.82336 24.1018 3.01183C24.1315 3.02822 24.1621 3.04373 24.1931 3.05811L43.3003 11.8676C43.4627 11.9424 43.6382 11.9846 43.8168 11.9916C43.9954 11.9986 44.1736 11.9703 44.3413 11.9085C44.509 11.8466 44.6629 11.7523 44.7941 11.6309C44.9254 11.5096 45.0314 11.3636 45.1062 11.2013C45.1811 11.0389 45.2232 10.8635 45.2302 10.6848C45.2372 10.5062 45.209 10.328 45.1471 10.1603C45.0852 9.99261 44.9909 9.83875 44.8696 9.7075C44.7482 9.57625 44.6022 9.47019 44.4399 9.39536Z" fill="#01813B"/>
<path d="M39.7869 22.8818C39.6081 22.8818 39.4311 22.917 39.266 22.9854C39.1008 23.0538 38.9508 23.1541 38.8244 23.2805C38.698 23.4069 38.5978 23.5569 38.5294 23.722C38.461 23.8872 38.4258 24.0642 38.4258 24.2429V29.6872C38.4258 30.0482 38.5692 30.3944 38.8244 30.6496C39.0797 30.9049 39.4259 31.0483 39.7869 31.0483C40.1478 31.0483 40.494 30.9049 40.7493 30.6496C41.0045 30.3944 41.1479 30.0482 41.1479 29.6872V24.2429C41.1479 24.0642 41.1127 23.8872 41.0443 23.722C40.9759 23.5569 40.8757 23.4069 40.7493 23.2805C40.6229 23.1541 40.4729 23.0538 40.3077 22.9854C40.1426 22.917 39.9656 22.8818 39.7869 22.8818Z" fill="#01813B"/>
<path d="M6.21459 22.4277C6.03584 22.4277 5.85885 22.4629 5.69371 22.5313C5.52858 22.5997 5.37853 22.7 5.25214 22.8264C5.12575 22.9527 5.0255 23.1028 4.9571 23.2679C4.8887 23.4331 4.85351 23.6101 4.85352 23.7888V29.2331C4.85352 29.5941 4.99691 29.9403 5.25216 30.1955C5.50741 30.4508 5.85361 30.5942 6.21459 30.5942C6.57556 30.5942 6.92176 30.4508 7.17701 30.1955C7.43226 29.9403 7.57565 29.5941 7.57565 29.2331V23.7888C7.57566 23.6101 7.54047 23.4331 7.47207 23.2679C7.40367 23.1028 7.30342 22.9527 7.17703 22.8264C7.05064 22.7 6.90059 22.5997 6.73546 22.5313C6.57032 22.4629 6.39333 22.4277 6.21459 22.4277Z" fill="#01813B"/>
<path d="M34.797 11.3535H11.2051C10.3631 11.3545 9.55593 11.6894 8.96056 12.2848C8.36519 12.8801 8.03028 13.6874 8.0293 14.5293V41.7507C8.03028 42.5927 8.36519 43.3999 8.96056 43.9953C9.55593 44.5907 10.3631 44.9256 11.2051 44.9266H12.5662V46.2876C12.5662 46.7689 12.7574 47.2305 13.0977 47.5709C13.4381 47.9112 13.8997 48.1024 14.381 48.1024H18.0105C18.4918 48.1024 18.9534 47.9112 19.2937 47.5709C19.634 47.2305 19.8252 46.7689 19.8252 46.2876V44.9266H26.6306V46.2876C26.6306 46.7689 26.8218 47.2305 27.1621 47.5709C27.5024 47.9112 27.964 48.1024 28.4453 48.1024H32.0749C32.5562 48.1024 33.0178 47.9112 33.3581 47.5709C33.6984 47.2305 33.8896 46.7689 33.8896 46.2876V44.9266H34.797C35.639 44.9256 36.4462 44.5907 37.0416 43.9953C37.6369 43.3999 37.9718 42.5927 37.9728 41.7507V14.5293C37.9718 13.6874 37.6369 12.8801 37.0416 12.2848C36.4462 11.6894 35.639 11.3545 34.797 11.3535ZM35.2507 41.7507C35.2506 41.871 35.2027 41.9864 35.1177 42.0714C35.0326 42.1565 34.9173 42.2043 34.797 42.2044H11.2051C11.0848 42.2043 10.9695 42.1565 10.8845 42.0714C10.7994 41.9864 10.7516 41.871 10.7514 41.7507V14.5293C10.7516 14.4091 10.7994 14.2937 10.8845 14.2087C10.9695 14.1236 11.0848 14.0758 11.2051 14.0757H34.797C34.9173 14.0758 35.0326 14.1236 35.1177 14.2087C35.2027 14.2937 35.2506 14.4091 35.2507 14.5293V41.7507Z" fill="#01813B"/>
<path d="M15.2885 40.3896C16.7919 40.3896 18.0107 39.1708 18.0107 37.6675C18.0107 36.1641 16.7919 34.9453 15.2885 34.9453C13.7851 34.9453 12.5664 36.1641 12.5664 37.6675C12.5664 39.1708 13.7851 40.3896 15.2885 40.3896Z" fill="#01813B"/>
<path d="M30.7124 40.3896C32.2158 40.3896 33.4345 39.1708 33.4345 37.6675C33.4345 36.1641 32.2158 34.9453 30.7124 34.9453C29.209 34.9453 27.9902 36.1641 27.9902 37.6675C27.9902 39.1708 29.209 40.3896 30.7124 40.3896Z" fill="#01813B"/>
<path d="M32.0751 16.7979H13.9275C13.5666 16.7982 13.2207 16.9418 12.9655 17.1969C12.7103 17.4521 12.5668 17.7981 12.5664 18.1589V30.8622C12.5668 31.2231 12.7103 31.5691 12.9655 31.8242C13.2207 32.0794 13.5666 32.2229 13.9275 32.2233H32.0751C32.4359 32.2229 32.7819 32.0794 33.0371 31.8242C33.2922 31.5691 33.4357 31.2231 33.4361 30.8622V18.1589C33.4357 17.7981 33.2922 17.4521 33.0371 17.1969C32.7819 16.9418 32.4359 16.7982 32.0751 16.7979ZM31.6214 30.4085H14.3812V18.6126H31.6214V30.4085Z" fill="#01813B"/>
</svg>
