<svg width="747" height="287" viewBox="0 0 747 287" fill="none" xmlns="http://www.w3.org/2000/svg">
<path fill-rule="evenodd" clip-rule="evenodd" d="M230.187 0V67.5023H216.671V72.4456H187.058V96.2874H163.043V98.8714H119.157L86.393 65.5852H66.5356C65.9476 61.5768 62.5449 58.5018 58.4355 58.5018C53.9124 58.5018 50.2454 62.2273 50.2454 66.8219C50.2454 71.4215 53.9124 75.1471 58.4355 75.1471C62.545 75.1471 65.9478 72.072 66.5357 68.0594H85.381L118.146 101.346H163.043V103.934H194.037V103.932H194.585V80.0912H216.671V85.0406H230.187V123.726H204.548V126.311H96.1324L72.3358 102.137H16.9485C16.3605 98.1241 12.9577 95.049 8.84825 95.049C4.32519 95.049 0.658203 98.7746 0.658203 103.374C0.658203 107.969 4.32519 111.694 8.84825 111.694C12.9577 111.694 16.3605 108.619 16.9485 104.611H71.324L95.1254 128.785H204.548V131.372H230.187V137.218H220.044V139.808H78.0499C77.4638 135.797 74.0599 132.721 69.949 132.721C65.4214 132.721 61.7545 136.445 61.7545 141.041C61.7545 145.64 65.4214 149.366 69.949 149.366C74.0586 149.366 77.4615 146.29 78.0493 142.278H220.044V144.869H230.187V150.717H204.548V153.301H95.1254L71.324 177.477H16.9488C16.362 173.467 12.9586 170.39 8.84825 170.39C4.32519 170.39 0.658203 174.115 0.658203 178.711C0.658203 183.31 4.32519 187.036 8.84825 187.036C12.9569 187.036 16.359 183.962 16.9481 179.951H72.3358L96.1324 155.776H204.548V158.362H230.187V197.046H216.671V201.991H194.585V178.155H163.043V180.741H118.146L85.381 214.026H66.536C65.9489 210.014 62.5457 206.937 58.4355 206.937C53.9124 206.937 50.2454 210.663 50.2454 215.262C50.2454 219.858 53.9124 223.583 58.4355 223.583C62.5442 223.583 65.9465 220.509 66.5354 216.501H86.393L119.157 183.215H163.043V185.802H187.058V209.642H216.671V214.584H230.187V286.9H516.315V286.902H517.071V215.779H530.587V210.918H560.2V187.469H584.215V184.928H628.101L660.865 217.665H680.722C681.31 221.607 684.713 224.631 688.822 224.631C693.345 224.631 697.012 220.967 697.012 216.449C697.012 211.925 693.345 208.261 688.822 208.261C684.713 208.261 681.31 211.285 680.722 215.232H661.877L629.112 182.495H584.215V179.949H553.221V179.951H552.673V203.398H530.587V198.531H517.071V160.483H542.71V157.941L651.126 157.941L674.922 181.717H730.309C730.897 185.663 734.3 188.687 738.41 188.687C742.933 188.687 746.6 185.023 746.6 180.5C746.6 175.981 742.933 172.317 738.41 172.317C734.3 172.317 730.897 175.341 730.309 179.283H675.934L652.133 155.508L542.71 155.508V152.964H517.071V147.214H527.214V144.667H669.208C669.794 148.611 673.198 151.637 677.309 151.637C681.836 151.637 685.503 147.974 685.503 143.455C685.503 138.931 681.836 135.267 677.309 135.267C673.199 135.267 669.796 138.292 669.209 142.237L527.214 142.237V139.689H517.071V133.938H542.71V131.396L652.133 131.396L675.934 107.62L730.309 107.62C730.896 111.564 734.299 114.59 738.41 114.59C742.933 114.59 746.6 110.926 746.6 106.406C746.6 101.882 742.933 98.2184 738.41 98.2184C734.301 98.2184 730.899 101.242 730.31 105.187L674.922 105.187L651.126 128.963H542.71V126.419H517.071V88.3735L530.587 88.3735V83.51H552.673V106.952L584.215 106.952V104.409L629.112 104.409L661.877 71.6733L680.722 71.6733C681.309 75.6198 684.712 78.6457 688.822 78.6457C693.345 78.6457 697.012 74.9817 697.012 70.4578C697.012 65.9383 693.345 62.2743 688.822 62.2743C684.714 62.2743 681.311 65.2977 680.722 69.2399H660.865L628.101 101.976H584.215V99.4322L560.2 99.4322V75.9855H530.587V71.1246L517.071 71.1246V0.00259809L516.59 0.00259805V0H230.187ZM474.334 38.2261H272.443V243.86H474.334V38.2261ZM284.888 49.4901H463.303V231.213H284.888V49.4901ZM336.52 92.9373H409.627C418.531 92.9373 425.816 100.229 425.816 109.141V174.971C425.816 183.884 418.531 191.175 409.627 191.175H336.52C327.616 191.175 320.331 183.884 320.331 174.971V109.141C320.331 100.229 327.616 92.9373 336.52 92.9373ZM374.28 103.199C370.325 103.199 367.118 106.41 367.118 110.368C367.118 113.772 369.488 116.622 372.666 117.355V165.068C369.488 165.801 367.118 168.652 367.118 172.054C367.118 176.014 370.325 179.224 374.28 179.224C378.236 179.224 381.443 176.014 381.443 172.054C381.443 168.651 379.072 165.8 375.893 165.068V117.355C379.072 116.623 381.443 113.773 381.443 110.368C381.443 106.41 378.236 103.199 374.28 103.199ZM370.346 110.368C370.346 108.193 372.108 106.429 374.28 106.429C376.454 106.429 378.216 108.193 378.216 110.368C378.216 112.544 376.454 114.307 374.28 114.307C372.108 114.307 370.346 112.544 370.346 110.368ZM370.346 172.054C370.346 169.956 371.986 168.24 374.053 168.122C374.127 168.132 374.203 168.138 374.279 168.138C374.318 168.138 374.356 168.136 374.394 168.134C374.432 168.131 374.469 168.127 374.507 168.122C376.575 168.24 378.216 169.956 378.216 172.054C378.216 174.23 376.454 175.994 374.28 175.994C372.108 175.994 370.346 174.23 370.346 172.054ZM351.608 103.203C347.891 103.203 344.875 106.22 344.875 109.941C344.875 111.118 345.176 112.225 345.707 113.187L334.449 124.817C334.157 125.118 333.994 125.522 333.994 125.941V157.073C333.994 157.504 334.166 157.917 334.471 158.22L346.349 170.014C346.047 170.779 345.882 171.612 345.882 172.484C345.882 176.206 348.897 179.223 352.615 179.223C356.333 179.223 359.349 176.206 359.349 172.484C359.349 168.762 356.333 165.744 352.615 165.744C350.95 165.744 349.425 166.349 348.25 167.352L337.221 156.4V143.058H347.778C348.046 146.535 350.948 149.275 354.491 149.275C358.21 149.275 361.224 146.257 361.224 142.535C361.224 138.813 358.209 135.797 354.491 135.797C351.727 135.797 349.351 137.464 348.314 139.85C348.227 139.836 348.137 139.828 348.047 139.828H337.221V126.595L347.898 115.565C348.962 116.27 350.237 116.68 351.608 116.68C355.327 116.68 358.342 113.663 358.342 109.941C358.342 106.22 355.327 103.203 351.608 103.203ZM348.102 109.941C348.102 108.005 349.672 106.433 351.608 106.433C353.545 106.433 355.114 108.004 355.114 109.941C355.114 111.879 353.544 113.45 351.608 113.45C349.673 113.45 348.102 111.879 348.102 109.941ZM352.615 168.974C350.679 168.974 349.109 170.546 349.109 172.484C349.109 174.421 350.679 175.992 352.615 175.992C354.551 175.992 356.121 174.421 356.121 172.484C356.121 170.546 354.551 168.974 352.615 168.974ZM350.986 142.535C350.986 140.598 352.555 139.027 354.491 139.027C356.427 139.027 357.998 140.598 357.998 142.535C357.998 144.473 356.427 146.045 354.491 146.045C352.556 146.045 350.986 144.473 350.986 142.535ZM397.311 112.312C397.311 108.211 400.634 104.886 404.731 104.886C408.828 104.886 412.152 108.211 412.152 112.312C412.152 116.414 408.829 119.741 404.731 119.741C403.941 119.741 403.18 119.617 402.466 119.388L394.444 135.113L408.969 148.574C409.587 149.146 409.661 150.096 409.141 150.758L396.905 166.315C400.06 167.171 402.381 170.056 402.381 173.484C402.381 177.585 399.058 180.912 394.96 180.912C390.863 180.912 387.54 177.585 387.54 173.484C387.54 170.159 389.724 167.345 392.733 166.398L405.684 149.932L391.356 136.652C390.825 136.161 390.686 135.377 391.015 134.732L399.677 117.751C398.221 116.395 397.311 114.46 397.311 112.312ZM404.731 108.116C402.416 108.116 400.538 109.996 400.538 112.312C400.538 114.63 402.417 116.511 404.731 116.511C407.046 116.511 408.925 114.63 408.925 112.312C408.925 109.996 407.047 108.116 404.731 108.116ZM394.96 169.288C392.645 169.288 390.767 171.167 390.767 173.484C390.767 175.802 392.646 177.681 394.96 177.681C397.275 177.681 399.153 175.802 399.153 173.484C399.153 171.167 397.275 169.288 394.96 169.288ZM105.75 117.541H175.326V120.124H206.319V112.478H175.326V115.067H106.757L73.9924 81.7804H44.1769C43.5892 77.7721 40.1862 74.6963 36.0766 74.6963C31.5535 74.6963 27.8865 78.4218 27.8865 83.0163C27.8865 87.6117 31.5535 91.3372 36.0766 91.3372C40.1855 91.3372 43.5879 88.263 44.1766 84.2547H72.9852L105.75 117.541ZM36.0766 77.845C38.8828 77.845 41.1672 80.1658 41.1672 83.0163C41.1672 85.8676 38.8828 88.1885 36.0766 88.1885C33.2702 88.1885 30.9858 85.8676 30.9858 83.0163C30.9858 80.1658 33.2702 77.845 36.0766 77.845ZM26.8783 164.714L28.1281 165.913C29.4648 167.195 31.5679 167.114 32.8231 165.735C34.0758 164.354 34.0066 162.187 32.6699 160.905L30.892 159.202C21.4201 149.586 20.9425 133.939 29.8689 123.745L29.8745 123.738L29.8763 123.736L29.8839 123.729L29.8873 123.725C29.889 123.724 29.8908 123.722 29.8927 123.72L29.8981 123.716L29.9104 123.706L29.9153 123.701L32.0162 121.381C33.2667 120.005 33.1832 117.844 31.8391 116.555C30.4926 115.264 28.3915 115.332 27.1458 116.708L25.0401 119.028C25.0249 119.044 25.0113 119.062 24.9987 119.079C24.9859 119.096 24.9739 119.114 24.9621 119.132C24.9425 119.162 24.9232 119.19 24.9003 119.218C13.9097 131.821 14.2344 150.994 25.419 163.209C25.5503 163.402 25.7004 163.584 25.8716 163.75L26.8634 164.697C26.8645 164.701 26.8664 164.704 26.8686 164.706L26.8721 164.709L26.8738 164.71L26.8761 164.712L26.8783 164.714ZM34.7684 155.274C34.7907 155.298 34.813 155.322 34.8356 155.345L34.8576 155.368C34.8703 155.381 34.8832 155.394 34.8963 155.407C34.9151 155.426 34.9343 155.444 34.9538 155.463L34.9642 155.473L36.4604 156.865C37.1624 157.543 38.0834 157.893 39.0439 157.856C40.0093 157.819 40.904 157.4 41.5603 156.673C42.9241 155.171 42.8459 152.816 41.3927 151.423L39.9379 149.982C35.2213 145.455 34.9603 137.824 39.3586 132.971L41.2955 130.834C42.6638 129.328 42.5801 126.95 41.1047 125.538C39.6341 124.127 37.3222 124.202 35.9539 125.711L34.8306 126.95L34.0169 127.845C27.0969 135.478 27.2308 147.317 34.3224 154.803L34.3463 154.832L34.3492 154.836C34.3825 154.878 34.4124 154.914 34.4498 154.949L34.7057 155.208L34.7201 155.223L34.7468 155.251L34.7684 155.274ZM42.6661 140.895C42.7789 144.195 45.4745 146.78 48.682 146.665C51.8894 146.551 54.4018 143.78 54.289 140.481C54.1761 137.182 51.4806 134.597 48.2732 134.711C45.0657 134.825 42.5532 137.596 42.6661 140.895ZM105.75 164.545H175.326V161.959H206.319V169.606H175.326V167.019H106.757L73.9924 200.305H44.1769C43.5892 204.315 40.1863 207.39 36.0766 207.39C31.5535 207.39 27.8865 203.665 27.8865 199.069C27.8865 194.475 31.5535 190.749 36.0766 190.749C40.1855 190.749 43.5878 193.824 44.1766 197.831H72.9852L105.75 164.545ZM36.0766 193.898C33.2702 193.898 30.9858 196.219 30.9858 199.069C30.9858 201.921 33.2702 204.242 36.0766 204.242C38.8828 204.242 41.1672 201.921 41.1672 199.069C41.1672 196.219 38.8828 193.898 36.0766 193.898ZM641.508 166.567H571.932V164.026H540.939V171.546H571.932V169L640.501 169L673.266 201.737H703.081C703.669 205.679 707.072 208.704 711.181 208.704C715.704 208.704 719.371 205.04 719.371 200.521C719.371 196.002 715.704 192.338 711.181 192.338C707.072 192.338 703.67 195.361 703.081 199.304H674.273L641.508 166.567ZM711.181 205.607C708.375 205.607 706.091 203.325 706.091 200.521C706.091 197.717 708.375 195.435 711.181 195.435C713.988 195.435 716.272 197.717 716.272 200.521C716.272 203.325 713.988 205.607 711.181 205.607ZM720.38 120.172L719.13 118.993C717.793 117.732 715.69 117.811 714.435 119.168C713.182 120.526 713.251 122.657 714.588 123.918L716.366 125.593C725.838 135.05 726.315 150.44 717.389 160.465L717.383 160.471L717.382 160.473L717.374 160.481L717.37 160.485L717.369 160.486L717.369 160.486C717.368 160.487 717.366 160.488 717.365 160.489L717.36 160.494L717.347 160.504L717.343 160.508L715.242 162.79C713.991 164.143 714.075 166.268 715.419 167.536C716.765 168.806 718.866 168.74 720.112 167.386L722.218 165.104C722.222 165.1 722.226 165.096 722.229 165.091L722.234 165.086L722.242 165.076C722.248 165.069 722.254 165.061 722.259 165.054C722.272 165.037 722.284 165.019 722.296 165.001C722.315 164.973 722.335 164.945 722.358 164.917C733.348 152.522 733.023 133.665 721.839 121.652C721.708 121.463 721.557 121.283 721.386 121.12L720.394 120.189C720.393 120.183 720.389 120.18 720.386 120.177L720.384 120.176L720.382 120.174L720.38 120.172ZM712.49 129.456C712.448 129.412 712.405 129.368 712.362 129.325C712.344 129.308 712.327 129.292 712.309 129.275L712.294 129.26L710.797 127.892C710.095 127.225 709.174 126.881 708.214 126.917C707.249 126.953 706.354 127.365 705.698 128.08C704.334 129.557 704.412 131.873 705.865 133.244L707.32 134.661C712.037 139.113 712.298 146.618 707.899 151.391L705.962 153.492C704.594 154.974 704.678 157.312 706.153 158.702C707.624 160.089 709.936 160.016 711.304 158.531L712.427 157.312L713.241 156.433C720.161 148.926 720.027 137.282 712.935 129.919L712.912 129.891L712.909 129.887C712.896 129.871 712.883 129.856 712.87 129.841C712.851 129.818 712.831 129.797 712.808 129.776L712.552 129.521L712.518 129.485L712.49 129.456ZM704.592 143.598C704.479 140.353 701.783 137.81 698.576 137.923C695.368 138.035 692.856 140.761 692.969 144.005C693.082 147.25 695.777 149.792 698.985 149.68C702.192 149.568 704.705 146.842 704.592 143.598ZM641.508 120.338L571.932 120.338V122.881H540.939V115.361H571.932V117.905H640.501L673.266 85.168L703.081 85.168C703.669 81.2249 707.072 78.1998 711.181 78.1999C715.704 78.1999 719.371 81.8639 719.371 86.3835C719.371 90.9022 715.704 94.5662 711.181 94.5662C707.072 94.5662 703.67 91.5427 703.081 87.6014H674.273L641.508 120.338ZM711.181 91.4694C713.988 91.4694 716.272 89.1868 716.272 86.3835C716.272 83.5792 713.988 81.2966 711.181 81.2966C708.375 81.2966 706.091 83.5792 706.091 86.3835C706.091 89.1868 708.375 91.4694 711.181 91.4694Z" fill="#D9D9D9"/>
</svg>
