<svg width="531" height="205" viewBox="0 0 531 205" fill="none" xmlns="http://www.w3.org/2000/svg">
<path fill-rule="evenodd" clip-rule="evenodd" d="M367.392 204.153H367.732V153.562H377.346V150.104H398.41V133.425H415.493V131.617H446.709L470.015 154.903H484.14C484.559 157.707 486.979 159.859 489.902 159.859C493.119 159.859 495.728 157.252 495.728 154.038C495.728 150.82 493.119 148.214 489.902 148.214C486.979 148.214 484.558 150.365 484.14 153.172H470.735L447.429 129.886H415.493V128.075L393.446 128.075V128.077H393.057V144.755H377.346V141.293H367.732V114.229H385.97V112.421L463.088 112.421L480.014 129.333H519.412C519.831 132.14 522.251 134.291 525.174 134.291C528.392 134.291 531 131.685 531 128.467C531 125.253 528.392 122.646 525.174 122.646C522.251 122.646 519.831 124.797 519.412 127.602L480.734 127.602L463.804 110.69H385.97V108.88H367.732L367.732 104.79H374.947V102.978L475.95 102.978C476.367 105.784 478.788 107.937 481.712 107.937C484.933 107.937 487.541 105.331 487.541 102.116C487.541 98.8982 484.933 96.292 481.712 96.292C478.789 96.292 476.368 98.4438 475.95 101.25L374.947 101.25V99.4378H367.732V95.3471H385.97V93.5388H463.804L480.734 76.6263L519.412 76.6263C519.83 79.4317 522.251 81.5841 525.174 81.5841C528.392 81.5841 531 78.9778 531 75.763C531 72.5451 528.392 69.9388 525.174 69.9388C522.252 69.9388 519.832 72.0895 519.413 74.8954L480.014 74.8954L463.088 91.8078L385.97 91.8078V89.9984H367.732V62.9359L377.346 62.936V59.4765H393.057V76.1515H415.493V74.3426H447.429L470.735 51.0568H484.14C484.558 53.864 486.978 56.0164 489.902 56.0164C493.119 56.0164 495.728 53.4101 495.728 50.1922C495.728 46.9774 493.119 44.3712 489.902 44.3712C486.979 44.3712 484.559 46.5217 484.14 49.3259L470.015 49.3259L446.709 72.6117H415.493V70.8022H398.41V54.1242L377.346 54.1242V50.6665H367.732V0.0761719L367.194 0.0761719V0.0768689H163.668V48.0925H154.054V51.6087H132.99V68.5678H115.908V70.4059H84.6909L61.3851 46.7288H47.2602C46.8419 43.8775 44.4215 41.6902 41.4984 41.6902C38.2811 41.6902 35.6727 44.3402 35.6727 47.6084C35.6727 50.8803 38.2811 53.5303 41.4984 53.5303C44.4215 53.5303 46.842 51.3429 47.2602 48.4887H60.6652L83.9716 72.1658H115.908V74.0068H137.954V74.0056H138.344V57.0472H154.054V60.5678H163.668V88.0855H145.431V89.9241H68.3128L51.3859 72.7285H11.988C11.5697 69.8743 9.14925 67.6869 6.22611 67.6869C3.00878 67.6869 0.400391 70.337 0.400391 73.6088C0.400391 76.877 3.00878 79.527 6.22611 79.527C9.14925 79.527 11.5697 77.3397 11.988 74.4885H50.6662L67.5965 91.6841H145.431V93.5239H163.668V97.6827H156.453V99.525H55.4504C55.0335 96.672 52.6123 94.4835 49.6882 94.4835C46.4676 94.4835 43.8592 97.1329 43.8592 100.402C43.8592 103.674 46.4676 106.324 49.6882 106.324C52.6114 106.324 55.0319 104.136 55.45 101.282H156.453V103.125H163.668V107.284H145.431V109.123H67.5965L50.6662 126.319H11.9882C11.5708 123.467 9.14985 121.278 6.22611 121.278C3.00878 121.278 0.400391 123.928 0.400391 127.197C0.400391 130.469 3.00878 133.119 6.22611 133.119C9.14866 133.119 11.5686 130.932 11.9877 128.079H51.3859L68.3128 110.883H145.431V112.723H163.668V140.239H154.054V143.757H138.344V126.802H115.908V128.641H83.9716L60.6652 152.318H47.2604C46.8428 149.463 44.422 147.275 41.4984 147.275C38.2811 147.275 35.6727 149.925 35.6727 153.197C35.6727 156.466 38.2811 159.116 41.4984 159.116C44.421 159.116 46.8411 156.929 47.26 154.078H61.3851L84.6909 130.401H115.908V132.241H132.99V149.199H154.054V152.715H163.668V204.154H367.392V204.153ZM456.246 118.556L406.755 118.556V116.749H384.71V122.098L406.755 122.098V120.287L455.53 120.287L478.836 143.573H500.044C500.462 146.378 502.883 148.529 505.806 148.529C509.024 148.529 511.632 145.923 511.632 142.709C511.632 139.494 509.024 136.888 505.806 136.888C502.884 136.888 500.463 139.038 500.045 141.842H479.552L456.246 118.556ZM505.806 146.327C503.81 146.327 502.185 144.703 502.185 142.709C502.185 140.714 503.81 139.09 505.806 139.09C507.802 139.09 509.427 140.714 509.427 142.709C509.427 144.703 507.802 146.327 505.806 146.327ZM512.349 85.555L511.46 84.7162C510.509 83.8193 509.013 83.8756 508.121 84.8404C507.229 85.8069 507.279 87.3225 508.229 88.2195L509.494 89.4108C516.232 96.1379 516.571 107.085 510.222 114.216L510.218 114.221L510.217 114.222L510.211 114.227L510.208 114.23L510.207 114.232L510.205 114.233L510.201 114.236L510.192 114.243L510.189 114.246L508.695 115.869C507.805 116.832 507.864 118.344 508.82 119.246C509.778 120.149 511.273 120.102 512.159 119.139L513.657 117.516C513.663 117.51 513.668 117.503 513.674 117.496C513.678 117.491 513.682 117.485 513.686 117.48C513.695 117.468 513.704 117.455 513.712 117.443L513.728 117.42L513.734 117.411L513.741 117.402C513.746 117.395 513.751 117.389 513.756 117.383C521.574 108.566 521.343 95.1528 513.387 86.6079C513.294 86.473 513.187 86.3452 513.065 86.2289L512.36 85.567C512.359 85.5623 512.356 85.5604 512.354 85.5584L512.352 85.5574L512.351 85.5564L512.349 85.555ZM506.735 92.1572C506.706 92.1265 506.677 92.0957 506.646 92.0656L506.632 92.0518L506.608 92.0294L506.598 92.0195L505.533 91.0458C505.034 90.5715 504.379 90.3269 503.696 90.3527C503.009 90.3785 502.372 90.6716 501.906 91.1801C500.936 92.2305 500.991 93.8781 502.025 94.853L503.06 95.8609C506.415 99.0277 506.6 104.366 503.472 107.762L502.094 109.256C501.121 110.31 501.18 111.973 502.23 112.962C503.276 113.948 504.92 113.896 505.893 112.84L506.693 111.973L507.271 111.348C512.194 106.008 512.098 97.7255 507.054 92.4883L507.037 92.468L507.035 92.4655C507.011 92.4361 506.99 92.4104 506.964 92.3864L506.781 92.2047L506.757 92.1794L506.737 92.1586L506.735 92.1572ZM501.119 102.218C501.039 99.9097 499.121 98.1008 496.84 98.1812C494.558 98.2609 492.771 100.2 492.851 102.508C492.932 104.816 494.849 106.624 497.131 106.544C499.412 106.465 501.199 104.526 501.119 102.218ZM456.246 85.6731L406.755 85.6731V87.482H384.71V82.1327H406.755V83.9422L455.53 83.9422L478.836 60.6558H500.044C500.462 57.8511 502.883 55.6993 505.806 55.6993C509.024 55.6993 511.632 58.3055 511.632 61.5204C511.632 64.7346 509.024 67.3409 505.806 67.3409C502.884 67.3409 500.463 65.1903 500.045 62.3868H479.552L456.246 85.6731ZM505.806 65.1381C507.802 65.1381 509.427 63.5145 509.427 61.5204C509.427 59.5257 507.802 57.902 505.806 57.902C503.81 57.902 502.185 59.5257 502.185 61.5204C502.185 63.5145 503.81 65.1381 505.806 65.1381ZM337.335 27.2678H193.725V173.539H337.335V27.2678ZM202.578 35.2801H329.488V164.543H202.578V35.2801ZM239.305 66.1848H291.307C297.64 66.1848 302.823 71.3715 302.823 77.711V124.537C302.823 130.877 297.64 136.063 291.307 136.063H239.305C232.971 136.063 227.789 130.877 227.789 124.537V77.711C227.789 71.3715 232.971 66.1848 239.305 66.1848ZM266.164 73.4838C263.351 73.4838 261.07 75.7681 261.07 78.5839C261.07 81.0047 262.755 83.0323 265.016 83.5535V117.493C262.755 118.014 261.07 120.042 261.07 122.462C261.07 125.278 263.351 127.562 266.164 127.562C268.978 127.562 271.26 125.278 271.26 122.462C271.26 120.041 269.573 118.014 267.312 117.492V83.5535C269.573 83.0329 271.26 81.0053 271.26 78.5839C271.26 75.7681 268.978 73.4838 266.164 73.4838ZM263.366 78.5839C263.366 77.0367 264.619 75.7815 266.164 75.7815C267.71 75.7815 268.964 77.0367 268.964 78.5839C268.964 80.1311 267.71 81.3858 266.164 81.3858C264.619 81.3858 263.366 80.1311 263.366 78.5839ZM263.366 122.462C263.366 120.97 264.532 119.749 266.003 119.665C266.055 119.672 266.109 119.676 266.164 119.676C266.173 119.676 266.182 119.676 266.191 119.676C266.209 119.675 266.227 119.675 266.245 119.673C266.272 119.672 266.299 119.669 266.325 119.665C267.796 119.749 268.964 120.97 268.964 122.462C268.964 124.01 267.71 125.264 266.164 125.264C264.619 125.264 263.366 124.01 263.366 122.462ZM250.037 73.4869C247.393 73.4869 245.248 75.6327 245.248 78.2797C245.248 79.1173 245.462 79.9043 245.84 80.589L237.832 88.8615C237.624 89.0755 237.508 89.3626 237.508 89.6608V111.806C237.508 112.112 237.63 112.406 237.847 112.622L246.296 121.011C246.082 121.555 245.964 122.148 245.964 122.767C245.964 125.415 248.109 127.562 250.754 127.562C253.398 127.562 255.543 125.415 255.543 122.767C255.543 120.121 253.398 117.973 250.754 117.973C249.569 117.973 248.485 118.404 247.648 119.118L239.804 111.327V101.837H247.313C247.503 104.31 249.568 106.259 252.088 106.259C254.733 106.259 256.877 104.112 256.877 101.464C256.877 98.8173 254.733 96.6714 252.088 96.6714C250.121 96.6714 248.432 97.8577 247.694 99.5549C247.632 99.5445 247.568 99.539 247.504 99.539H239.804V90.1259L247.398 82.2807C248.155 82.7818 249.062 83.0738 250.037 83.0738C252.683 83.0738 254.827 80.9273 254.827 78.2797C254.827 75.6327 252.683 73.4869 250.037 73.4869ZM247.543 78.2797C247.543 76.9026 248.66 75.7845 250.037 75.7845C251.415 75.7845 252.531 76.902 252.531 78.2797C252.531 79.6587 251.415 80.7761 250.037 80.7761C248.661 80.7761 247.543 79.6587 247.543 78.2797ZM250.754 120.271C249.377 120.271 248.26 121.389 248.26 122.767C248.26 124.146 249.377 125.263 250.754 125.263C252.131 125.263 253.248 124.146 253.248 122.767C253.248 121.389 252.13 120.271 250.754 120.271ZM249.595 101.464C249.595 100.086 250.711 98.9691 252.088 98.9691C253.465 98.9691 254.582 100.086 254.582 101.464C254.582 102.843 253.465 103.961 252.088 103.961C250.712 103.961 249.595 102.843 249.595 101.464ZM282.547 79.9665C282.547 77.0495 284.91 74.6842 287.825 74.6842C290.739 74.6842 293.103 77.0495 293.103 79.9665C293.103 82.8842 290.739 85.2507 287.825 85.2507C287.263 85.2507 286.721 85.1624 286.214 84.9995L280.507 96.1849L290.839 105.76C291.278 106.167 291.331 106.843 290.961 107.314L282.258 118.38C284.502 118.988 286.153 121.041 286.153 123.479C286.153 126.397 283.789 128.762 280.875 128.762C277.96 128.762 275.596 126.397 275.596 123.479C275.596 121.114 277.15 119.112 279.29 118.439L288.502 106.726L278.31 97.2798C277.933 96.9305 277.834 96.3727 278.068 95.9143L284.23 83.8352C283.194 82.8708 282.547 81.4942 282.547 79.9665ZM287.825 76.9818C286.178 76.9818 284.842 78.3188 284.842 79.9665C284.842 81.6155 286.178 82.9531 287.825 82.9531C289.471 82.9531 290.808 81.6155 290.808 79.9665C290.808 78.3188 289.472 76.9818 287.825 76.9818ZM280.875 120.494C279.227 120.494 277.892 121.831 277.892 123.479C277.892 125.128 279.228 126.465 280.875 126.465C282.521 126.465 283.857 125.128 283.857 123.479C283.857 121.831 282.521 120.494 280.875 120.494ZM75.154 83.6858H124.645V85.5232H146.691V80.0848H124.645V81.9258H75.8703L52.5643 58.2487H31.356C30.938 55.3976 28.5174 53.2097 25.5941 53.2097C22.3767 53.2097 19.7684 55.8597 19.7684 59.1278C19.7684 62.3966 22.3767 65.0467 25.5941 65.0467C28.5168 65.0467 30.937 62.8599 31.3558 60.0087H51.8479L75.154 83.6858ZM25.5941 55.4494C27.5902 55.4494 29.2152 57.1002 29.2152 59.1278C29.2152 61.156 27.5902 62.8069 25.5941 62.8069C23.5979 62.8069 21.9729 61.156 21.9729 59.1278C21.9729 57.1002 23.5979 55.4494 25.5941 55.4494ZM19.0512 117.241L19.9402 118.093C20.891 119.005 22.387 118.948 23.2798 117.967C24.1709 116.985 24.1217 115.443 23.1709 114.531L21.9062 113.32C15.1687 106.48 14.829 95.3497 21.1785 88.0989L21.1825 88.0941L21.1837 88.0928L21.1892 88.0873L21.192 88.0845L21.1954 88.0812L21.1992 88.0782L21.208 88.0709L21.2115 88.0678L22.7059 86.4175C23.5954 85.4385 23.536 83.9016 22.5799 82.9848C21.6222 82.0661 20.1276 82.1142 19.2415 83.0933L17.7436 84.7435C17.7328 84.7551 17.7232 84.7679 17.7142 84.7801C17.7051 84.7923 17.6966 84.8051 17.6882 84.8179C17.6742 84.8387 17.6605 84.8588 17.6442 84.8788C9.82642 93.8434 10.0574 107.482 18.0131 116.17C18.1065 116.307 18.2133 116.437 18.3351 116.555L19.0406 117.228C19.0414 117.232 19.0428 117.234 19.0443 117.235L19.0452 117.236L19.048 117.238L19.0497 117.239L19.0512 117.241ZM24.6636 110.526C24.6794 110.543 24.6953 110.56 24.7114 110.577C24.7256 110.591 24.7399 110.606 24.7545 110.621C24.762 110.628 24.7696 110.636 24.7773 110.643L24.7954 110.661L24.8028 110.668L25.8671 111.658C26.3665 112.14 27.0216 112.389 27.7048 112.362C28.3915 112.336 29.0279 112.038 29.4948 111.521C30.4649 110.453 30.4093 108.778 29.3756 107.787L28.3407 106.762C24.9857 103.542 24.8001 98.1138 27.9286 94.6615L29.3064 93.1417C30.2797 92.07 30.2202 90.3789 29.1707 89.3742C28.1246 88.3708 26.4801 88.4238 25.5069 89.4974L24.7078 90.3789L24.129 91.0153C19.2067 96.4446 19.3019 104.866 24.3463 110.191L24.3633 110.212L24.3654 110.214C24.3891 110.244 24.4103 110.27 24.4369 110.295L24.6189 110.479C24.6234 110.484 24.6279 110.489 24.6324 110.493C24.6365 110.497 24.6406 110.502 24.6447 110.506L24.6572 110.519L24.6636 110.526ZM30.2814 100.298C30.3616 102.645 32.279 104.484 34.5605 104.403C36.8421 104.322 38.6292 102.35 38.5489 100.004C38.4686 97.6566 36.5513 95.8179 34.2697 95.899C31.9882 95.9801 30.2011 97.9516 30.2814 100.298ZM75.154 117.121H124.645V115.281H146.691V120.72H124.645V118.881H75.8703L52.5643 142.558H31.356C30.938 145.409 28.5174 147.597 25.5941 147.597C22.3767 147.597 19.7684 144.947 19.7684 141.679C19.7684 138.41 22.3767 135.76 25.5941 135.76C28.5168 135.76 30.9369 137.947 31.3558 140.798H51.8479L75.154 117.121ZM25.5941 138C23.5979 138 21.9729 139.651 21.9729 141.679C21.9729 143.707 23.5979 145.358 25.5941 145.358C27.5902 145.358 29.2152 143.707 29.2152 141.679C29.2152 139.651 27.5902 138 25.5941 138Z" fill="#00A94D"/>
</svg>
